<svg width="53" height="53" viewBox="0 0 53 53" fill="none" xmlns="http://www.w3.org/2000/svg">
<path fill-rule="evenodd" clip-rule="evenodd" d="M26.4997 2.20831C13.084 2.20831 2.20801 13.0844 2.20801 26.5C2.20801 39.9156 13.084 50.7916 26.4997 50.7916C39.9153 50.7916 50.7913 39.9156 50.7913 26.5C50.7913 13.0844 39.9153 2.20831 26.4997 2.20831ZM37.029 22.3925C37.2229 22.1709 37.3705 21.9127 37.4631 21.6332C37.5558 21.3537 37.5916 21.0585 37.5684 20.7649C37.5453 20.4714 37.4637 20.1854 37.3284 19.9238C37.1931 19.6623 37.0069 19.4305 36.7807 19.2419C36.5545 19.0534 36.2928 18.9121 36.0112 18.8262C35.7295 18.7403 35.4335 18.7115 35.1406 18.7417C34.8477 18.7719 34.5638 18.8604 34.3056 19.0019C34.0473 19.1434 33.82 19.3351 33.637 19.5658L24.1412 30.9586L19.2276 26.0429C18.8111 25.6406 18.2533 25.418 17.6743 25.423C17.0953 25.4281 16.5414 25.6603 16.1319 26.0698C15.7225 26.4792 15.4903 27.0331 15.4852 27.6121C15.4802 28.1911 15.7028 28.7489 16.105 29.1654L22.73 35.7904C22.947 36.0073 23.2068 36.1766 23.4928 36.2874C23.7789 36.3983 24.0849 36.4484 24.3913 36.4345C24.6978 36.4206 24.998 36.343 25.2727 36.2066C25.5475 36.0702 25.7909 35.8781 25.9873 35.6425L37.029 22.3925Z" fill="#00F99F"/>
</svg>
