<svg width="540" height="404" viewBox="0 0 540 404" fill="none" xmlns="http://www.w3.org/2000/svg">
<path d="M281 403.285H256.6L0 254.514C0 254.514 134.889 168.285 147.325 168.285C147.757 168.285 148.044 168.391 148.169 168.608L281 403.285Z" fill="#845ABD"/>
<path d="M281 403.285L21 254.042V227.285L281 376.529V403.285Z" fill="#7545C3"/>
<path d="M540 254.042L281 403.285V376.529L540 227.285V254.042Z" fill="#A37AE9"/>
<path d="M280.499 376.285L21 226.786L280.499 77.2852L540 226.786L280.499 376.285Z" fill="#B58EF8"/>
<path d="M521 226.785L280.999 365.285L41 226.785L280.999 88.2852L521 226.785Z" fill="#FFFFF8"/>
<path d="M161 226.786L101.001 261.285L41 226.786L101.001 192.285L161 226.786Z" fill="#31303A"/>
<path d="M281 226.786L221.001 261.285L161 226.786L221.001 192.285L281 226.786Z" fill="#31303A"/>
<path d="M281 157.285L221.001 192.285L161 157.285L221.001 122.285L281 157.285Z" fill="#31303A"/>
<path d="M401 157.285L341 192.285L281 157.285L341 122.285L401 157.285Z" fill="#31303A"/>
<path d="M281 295.785L221.001 330.285L161 295.785L221.001 261.285L281 295.785Z" fill="#31303A"/>
<path d="M401 295.785L341 330.285L281 295.785L341 261.285L401 295.785Z" fill="#31303A"/>
<path d="M401 226.786L341 261.285L281 226.786L341 192.285L401 226.786Z" fill="#31303A"/>
<path d="M521 226.786L460.999 261.285L401 226.786L460.999 192.285L521 226.786Z" fill="#31303A"/>
<path d="M368.023 252.285L368 260.116C367.985 265.169 371.229 270.235 377.758 274.156C391.035 282.13 412.869 282.353 426.528 274.651C433.469 270.737 436.963 265.53 436.978 260.309L437 252.481L368.023 252.285Z" fill="#DFDBCF"/>
<path d="M426.878 238.733L426.02 238.237C432.749 242.257 435.803 247.555 435.22 252.724C434.711 257.249 431.416 261.676 425.361 265.072C422.661 266.59 419.623 267.78 416.392 268.648C404.103 271.951 389.015 270.576 379.028 264.605C366.414 257.065 366.709 245.051 379.687 237.769L378.846 238.249C365.393 245.796 365.088 258.253 378.164 266.071C388.518 272.259 404.157 273.685 416.899 270.262C420.248 269.361 423.396 268.127 426.197 266.555C432.473 263.034 435.887 258.442 436.416 253.755C437.021 248.393 433.853 242.904 426.878 238.733Z" fill="url(#paint0_linear_4_2305)"/>
<path d="M426.03 234.518L425.619 234.275L419.503 230.746L419.805 230.923L385.788 230.578L379.697 234.048C366.721 241.33 366.426 253.344 379.04 260.884C389.02 266.851 404.09 268.228 416.375 264.935C419.616 264.067 422.663 262.874 425.373 261.354C431.443 257.948 434.738 253.504 435.235 248.969C435.798 243.809 432.741 238.529 426.03 234.518Z" fill="url(#paint1_linear_4_2305)"/>
<path d="M425.851 261.553C412.585 268.582 391.379 268.378 378.488 261.102C372.145 257.522 368.995 252.898 369.01 248.285L369 251.877C368.985 256.487 372.135 261.112 378.475 264.691C391.369 271.97 412.575 272.172 425.839 265.142C432.581 261.572 435.975 256.819 435.987 252.053L436 248.463C435.985 253.228 432.591 257.98 425.851 261.553Z" fill="#DFDBCF"/>
<path d="M418.881 246.381C409.576 251.73 394.701 251.578 385.658 246.039C381.21 243.315 379 239.796 379.01 236.285L379 240.276C378.99 243.787 381.2 247.304 385.646 250.03C394.692 255.566 409.564 255.721 418.869 250.372C423.598 247.653 425.978 244.038 425.988 240.412L426 236.42C425.99 240.047 423.61 243.664 418.881 246.381Z" fill="#DFDBCF"/>
<path d="M419.697 226.875C417.223 221.538 416.608 213.383 416.348 207.778C416.296 206.268 416.259 204.714 416.264 203.041C416.259 205.09 414.879 207.134 412.142 208.671C406.756 211.693 398.144 211.607 392.908 208.476C390.333 206.937 389.054 204.947 389.059 202.965C389.054 204.202 389.013 205.319 388.978 206.467C388.772 213.262 388.191 220.254 385.638 226.474L385.466 226.769C380.872 229.459 378.519 233.015 378.509 236.544C378.499 240.054 380.762 243.571 385.316 246.293C394.575 251.829 409.806 251.982 419.333 246.635C424.176 243.92 426.613 240.305 426.623 236.68C426.635 232.423 423.413 229.061 419.697 226.875Z" fill="url(#paint2_linear_4_2305)"/>
<path d="M380.611 197.06L380.609 198.551C380.599 201.767 382.675 204.992 386.851 207.49C395.345 212.566 409.314 212.709 418.054 207.805C422.493 205.314 424.729 201.996 424.739 198.674L424.744 197.183L380.611 197.06Z" fill="url(#paint3_linear_4_2305)"/>
<path d="M418.5 188.244C416.365 186.97 413.886 186.003 411.23 185.354L407.324 184.397C408.763 184.749 410.106 185.27 411.259 185.962L394.371 185.789C395.485 185.167 396.754 184.692 398.104 184.37L394.197 185.305C391.7 185.9 389.354 186.776 387.298 187.929C378.56 192.833 378.361 200.924 386.856 206C393.112 209.741 402.339 210.803 410.258 209.143C413.091 208.55 415.755 207.608 418.057 206.317C422.624 203.755 424.857 200.321 424.739 196.903C424.631 193.78 422.555 190.669 418.5 188.244Z" fill="url(#paint4_linear_4_2305)"/>
<path d="M390.773 183.025L390.754 190.733C390.746 192.476 391.87 194.22 394.133 195.572C398.729 198.322 406.292 198.398 411.021 195.742C413.424 194.394 414.634 192.599 414.638 190.801L414.661 183.091L390.773 183.025Z" fill="url(#paint5_linear_4_2305)"/>
<path d="M387 180.285L392.699 186.497C393.173 187.017 393.756 187.507 394.439 187.96C399.033 190.986 406.584 191.07 411.311 188.147C412.09 187.664 412.743 187.131 413.269 186.565L419 180.385L387 180.285Z" fill="#C8BDAE"/>
<path d="M420.359 172.096L417.231 166.671L388.299 166.587L385.139 171.995C382.977 175.696 384.389 179.956 389.416 182.961C396.568 187.235 408.33 187.356 415.689 183.227C420.981 180.256 422.555 175.901 420.359 172.096Z" fill="url(#paint6_linear_4_2305)"/>
<path d="M413.702 163.314C407.826 159.802 398.164 159.703 392.119 163.095C386.076 166.486 385.938 172.084 391.814 175.596C397.687 179.107 407.349 179.206 413.394 175.814C419.439 172.423 419.574 166.826 413.702 163.314Z" fill="url(#paint7_linear_4_2305)"/>
<path d="M408.019 163.507C405.324 161.918 400.893 161.872 398.12 163.408C395.35 164.943 395.285 167.474 397.98 169.063C400.675 170.652 405.106 170.698 407.879 169.163C410.652 167.627 410.714 165.094 408.019 163.507Z" fill="#C8BDAE"/>
<path d="M410.608 165.05C410.259 164.841 409.89 164.649 409.508 164.475L406.857 163.265C407.091 163.37 407.312 163.486 407.524 163.614C408.773 164.359 409.398 165.323 409.403 166.287C409.405 167.291 408.734 168.296 407.391 169.049C406.771 169.396 406.065 169.659 405.313 169.838C402.873 170.421 399.959 170.121 398.006 168.953C395.451 167.426 395.513 164.994 398.139 163.518L398.69 163.243L396.031 164.438C395.719 164.578 395.417 164.73 395.126 164.893C390.791 167.327 390.692 171.341 394.905 173.859C398.127 175.785 402.937 176.279 406.961 175.32C408.2 175.025 409.366 174.59 410.386 174.017C412.602 172.775 413.711 171.117 413.704 169.46C413.699 167.873 412.669 166.282 410.608 165.05Z" fill="url(#paint8_linear_4_2305)"/>
<path d="M408.611 161.917C407.991 160.739 405.918 158.806 402.081 159.04C399.934 159.17 397.313 160.358 396.624 162.65C396.009 164.708 397.47 166.612 399.233 167.433C401.653 168.557 404.272 168.505 406.604 167.286C408.168 166.388 409.039 165.094 409.061 163.646C409.073 162.795 408.724 162.133 408.611 161.917Z" fill="url(#paint9_radial_4_2305)"/>
<path d="M419.892 227.01C421.694 228.812 423.008 231.036 423 233.677C422.99 236.977 420.92 240.27 416.808 242.744C408.716 247.616 395.781 247.476 387.913 242.432C384.045 239.953 382.124 236.749 382.134 233.554C382.139 231.274 383.196 228.992 385.174 226.978C380.798 229.644 378.519 233.101 378.509 236.544C378.499 240.054 380.762 243.571 385.316 246.293C394.575 251.829 409.806 251.982 419.333 246.635C424.176 243.92 426.613 240.305 426.623 236.68C426.635 232.499 423.519 229.199 419.892 227.01Z" fill="url(#paint10_linear_4_2305)"/>
<path d="M245.433 180.504L245.411 188.18C245.397 193.13 248.591 198.096 255.022 201.94C268.098 209.758 289.603 209.974 303.055 202.427C309.892 198.59 313.332 193.487 313.347 188.367L313.369 180.694L245.433 180.504Z" fill="url(#paint11_linear_4_2305)"/>
<path d="M303.758 166.931L302.9 166.432C309.629 170.456 312.683 175.75 312.1 180.922C311.589 185.445 308.296 189.872 302.241 193.271C299.541 194.785 296.503 195.976 293.272 196.844C280.983 200.147 265.895 198.772 255.908 192.801C243.294 185.261 243.589 173.247 256.567 165.965L255.726 166.444C242.273 173.994 241.968 186.451 255.044 194.267C265.398 200.457 281.037 201.881 293.778 198.457C297.128 197.557 300.276 196.323 303.077 194.751C309.353 191.229 312.767 186.64 313.296 181.95C313.9 176.591 310.733 171.1 303.758 166.931Z" fill="url(#paint12_linear_4_2305)"/>
<path d="M302.91 162.714L302.499 162.473L296.383 158.941L296.685 159.118L262.668 158.774L256.577 162.244C243.601 169.526 243.306 181.542 255.92 189.082C265.9 195.049 280.97 196.426 293.255 193.133C296.496 192.265 299.543 191.069 302.251 189.55C308.323 186.143 311.618 181.702 312.115 177.165C312.678 172.005 309.621 166.725 302.91 162.714Z" fill="url(#paint13_linear_4_2305)"/>
<path d="M302.253 189.55C289.275 196.832 268.531 196.623 255.917 189.082C249.715 185.374 246.634 180.583 246.648 175.807L246.638 179.526C246.624 184.304 249.705 189.095 255.908 192.801C268.521 200.341 289.266 200.55 302.241 193.271C308.837 189.569 312.157 184.646 312.169 179.71L312.181 175.989C312.167 180.927 308.847 185.848 302.253 189.55Z" fill="url(#paint14_linear_4_2305)"/>
<path d="M296.213 174.833C286.686 180.18 271.455 180.025 262.196 174.489C257.641 171.766 255.379 168.25 255.389 164.743L255.379 168.732C255.369 172.239 257.632 175.755 262.184 178.478C271.445 184.014 286.673 184.166 296.201 178.822C301.043 176.105 303.48 172.49 303.49 168.864L303.502 164.875C303.493 168.5 301.056 172.116 296.213 174.833Z" fill="url(#paint15_linear_4_2305)"/>
<path d="M296.577 155.073C294.101 149.733 293.488 141.581 293.228 135.976C293.176 134.464 293.139 132.912 293.144 131.237C293.139 133.286 291.759 135.329 289.022 136.866C283.634 139.889 275.024 139.803 269.788 136.672C267.213 135.133 265.932 133.145 265.939 131.161C265.934 132.398 265.89 133.517 265.858 134.663C265.651 141.458 265.071 148.45 262.518 154.669L262.346 154.964C257.752 157.655 255.399 161.213 255.389 164.743C255.379 168.25 257.641 171.766 262.196 174.489C271.455 180.025 286.686 180.18 296.213 174.833C301.056 172.116 303.493 168.5 303.503 164.875C303.515 160.618 300.293 157.256 296.577 155.073Z" fill="url(#paint16_linear_4_2305)"/>
<path d="M257.492 125.258L257.489 126.746C257.479 129.963 259.555 133.19 263.731 135.686C272.225 140.764 286.194 140.905 294.934 136.001C299.373 133.509 301.609 130.194 301.619 126.869L301.624 125.381L257.492 125.258Z" fill="url(#paint17_linear_4_2305)"/>
<path d="M295.379 116.439C293.245 115.165 290.766 114.201 288.11 113.55L284.204 112.593C285.643 112.945 286.986 113.466 288.139 114.157L271.251 113.987C272.365 113.363 273.634 112.888 274.984 112.566L271.077 113.501C268.58 114.098 266.234 114.971 264.178 116.125C255.44 121.028 255.241 129.12 263.735 134.198C269.992 137.939 279.219 138.999 287.138 137.341C289.971 136.746 292.635 135.804 294.937 134.513C299.504 131.95 301.737 128.517 301.619 125.101C301.51 121.978 299.435 118.864 295.379 116.439Z" fill="url(#paint18_linear_4_2305)"/>
<path d="M296.771 155.205C298.574 157.008 299.885 159.234 299.88 161.873C299.87 165.175 297.799 168.469 293.687 170.943C285.596 175.812 272.66 175.672 264.793 170.63C260.927 168.149 259.004 164.947 259.011 161.75C259.019 159.47 260.076 157.19 262.053 155.174C257.678 157.839 255.399 161.297 255.389 164.743C255.379 168.25 257.641 171.766 262.196 174.489C271.455 180.025 286.686 180.177 296.213 174.833C301.056 172.116 303.493 168.5 303.503 164.875C303.515 160.697 300.399 157.394 296.771 155.205Z" fill="url(#paint19_linear_4_2305)"/>
<path d="M287.866 117.659C283.149 120.305 275.609 120.229 271.025 117.489C268.772 116.142 267.651 114.401 267.656 112.664L267.638 119.189C267.634 120.925 268.753 122.666 271.008 124.014C275.592 126.754 283.13 126.83 287.847 124.184C290.244 122.838 291.449 121.051 291.454 119.255L291.474 112.731C291.469 114.526 290.262 116.314 287.866 117.659Z" fill="url(#paint20_linear_4_2305)"/>
<path d="M265.273 110.131L265.265 112.657C265.258 114.742 266.603 116.833 269.311 118.451C274.815 121.742 283.87 121.833 289.531 118.655C292.411 117.039 293.86 114.892 293.864 112.738L293.872 110.21L265.273 110.131Z" fill="url(#paint21_linear_4_2305)"/>
<path d="M289.826 104.418C284.322 101.125 275.267 101.034 269.603 104.212C263.942 107.392 263.812 112.635 269.318 115.925C274.822 119.216 283.875 119.307 289.539 116.13C295.202 112.952 295.33 107.709 289.826 104.418Z" fill="url(#paint22_linear_4_2305)"/>
<path d="M260.91 92.3383L267.459 111.543C267.906 112.854 268.991 114.108 270.717 115.141C275.471 117.981 283.287 118.06 288.178 115.316C290.035 114.275 291.201 112.977 291.676 111.612L298.335 92.444L260.91 92.3383Z" fill="url(#paint23_linear_4_2305)"/>
<path d="M260.551 87.9189L260.546 90.1667C260.536 92.9482 262.331 95.737 265.944 97.8963C273.29 102.289 285.372 102.412 292.93 98.1693C296.771 96.0149 298.704 93.1474 298.712 90.2724L298.719 88.0246L260.551 87.9189Z" fill="url(#paint24_linear_4_2305)"/>
<path d="M293.319 80.2926C285.973 75.9003 273.893 75.7798 266.335 80.0196C258.775 84.2594 258.605 91.2586 265.951 95.6485C273.297 100.041 285.377 100.164 292.935 95.9215C300.492 91.6816 300.665 84.6824 293.319 80.2926Z" fill="url(#paint25_linear_4_2305)"/>
<path d="M291.718 84.8078L290.2 80.6787C290.948 82.71 289.93 84.9087 287.17 86.458C282.899 88.8534 276.069 88.7845 271.918 86.3031C269.304 84.7414 268.374 82.592 269.109 80.6172L267.572 84.739C266.726 87.0015 267.791 89.4584 270.786 91.2488C275.538 94.0893 283.356 94.168 288.245 91.4258C291.405 89.6527 292.571 87.1343 291.718 84.8078Z" fill="url(#paint26_linear_4_2305)"/>
<path d="M287.387 77.6241C283.233 75.1402 276.406 75.0713 272.134 77.4692C267.862 79.867 267.764 83.8215 271.918 86.303C276.069 88.7844 282.898 88.8533 287.17 86.4579C291.442 84.0601 291.538 80.1055 287.387 77.6241Z" fill="url(#paint27_linear_4_2305)"/>
<path d="M279.495 76.2852C276.803 76.3335 274.13 76.853 272.048 77.9548C271.143 78.4332 270.543 79.0059 270 79.5834C270.103 81.7146 272.986 83.7273 276.895 84.1888C281.056 84.6818 284.678 83.2344 284.98 80.9534C285.244 78.9721 282.847 77.0849 279.495 76.2852Z" fill="#3E4BA2"/>
<path d="M285.596 73.1532C282.557 67.878 274.829 68.8027 273.071 74.6534C271.47 79.9753 277.045 85.5604 282.876 82.6215C284.893 81.6058 286.487 79.3064 286.509 76.5962C286.516 75.9125 286.405 74.5575 285.596 73.1532Z" fill="url(#paint28_radial_4_2305)"/>
<path d="M249.71 258.494L249.703 260.385C249.691 264.878 252.588 269.384 258.421 272.871C270.285 279.964 289.794 280.16 301.997 273.311C308.2 269.831 311.323 265.2 311.335 260.557L311.34 258.666L249.71 258.494Z" fill="url(#paint29_linear_4_2305)"/>
<path d="M301.719 244.171C297.354 241.52 292.044 239.926 286.513 239.282L260.388 243.686C254.203 247.019 249.919 252.006 249.71 258.494C249.695 262.987 252.595 267.492 258.428 270.98C270.289 278.07 289.799 278.267 302.005 271.42C308.205 267.94 311.328 263.309 311.34 258.479C311.104 252.722 307.868 247.906 301.719 244.171Z" fill="url(#paint30_linear_4_2305)"/>
<path d="M301.845 264.29C301.08 264.858 300.239 265.402 299.317 265.918C293.638 269.106 286.152 270.549 278.823 270.266C272.382 270.018 266.064 268.434 261.212 265.535C250.839 259.332 251.08 249.451 261.753 243.462C272.424 237.474 289.484 237.646 299.86 243.849C309.338 249.515 309.953 258.255 301.845 264.29ZM301.058 243.962C290.04 237.376 271.918 237.191 260.583 243.553C249.248 249.913 248.99 260.41 260.007 266.998C265.162 270.08 271.873 271.759 278.715 272.022C286.499 272.322 294.452 270.79 300.485 267.406C301.461 266.858 302.356 266.28 303.168 265.675C311.781 259.266 311.129 249.982 301.058 243.962Z" fill="url(#paint31_linear_4_2305)"/>
<path d="M302.3 236.788L255.871 238.915C246.769 246.738 247.652 258.09 259.37 265.198C267.304 270.011 284.962 274.1 301.09 265.636C301.382 265.471 301.616 265.21 301.776 264.866C301.616 265.21 301.382 265.471 301.09 265.636C303.598 264.148 311.232 259.622 311.362 250.835C311.419 246.979 309.769 241.598 302.3 236.788Z" fill="url(#paint32_linear_4_2305)"/>
<path d="M301.589 236.267C300.642 235.701 299.644 235.18 298.603 234.707L291.803 231.614C292.45 231.906 293.072 232.231 293.66 232.583L267.862 232.322C268.354 232.046 268.868 231.788 269.399 231.55L262.582 234.607C261.729 234.988 260.902 235.403 260.11 235.849C248.493 242.366 248.23 253.123 259.52 259.871C264.277 262.716 270.324 264.394 276.598 264.898C285.222 265.591 294.275 264.064 300.999 260.292C302.43 259.487 303.689 258.622 304.776 257.704C312.506 251.182 311.488 242.184 301.589 236.267Z" fill="url(#paint33_linear_4_2305)"/>
<path d="M262.336 238.77L262.334 239.872C262.327 242.533 264.041 245.201 267.496 247.265C274.517 251.463 286.069 251.581 293.294 247.525C296.966 245.464 298.815 242.722 298.823 239.975L298.825 238.871L262.336 238.77Z" fill="url(#paint34_linear_4_2305)"/>
<path d="M292.807 229.506L268.814 229.208C265.887 230.829 262.459 233.765 262.336 238.77C262.329 241.429 264.045 244.097 267.498 246.16C274.522 250.361 286.071 250.476 293.296 246.421C296.971 244.36 298.818 241.62 298.825 238.822C298.734 234.99 296.707 231.857 292.807 229.506Z" fill="url(#paint35_linear_4_2305)"/>
<path d="M292.699 229.449L291.317 228.808C296.366 231.825 296.884 236.414 292.942 239.739C292.389 240.206 291.747 240.649 291.017 241.057C287.588 242.983 282.97 243.76 278.572 243.408C275.375 243.15 272.291 242.294 269.867 240.846C264.109 237.403 264.245 231.919 270.167 228.594L268.814 229.208C262.125 232.961 261.975 239.156 268.477 243.042C271.214 244.677 274.694 245.644 278.307 245.937C283.275 246.335 288.488 245.457 292.362 243.283C293.186 242.821 293.911 242.321 294.536 241.793C298.987 238.037 298.399 232.856 292.699 229.449Z" fill="url(#paint36_linear_4_2305)"/>
<path d="M295.244 233.111L291.174 221.558L270.085 221.499L265.949 233.03C264.972 235.748 266.271 238.694 269.866 240.846C275.624 244.286 285.095 244.382 291.017 241.057C294.814 238.928 296.23 235.91 295.244 233.111Z" fill="url(#paint37_linear_4_2305)"/>
<path d="M297.898 213.297C296.006 209.635 291.968 207.308 287.278 206.209C289.315 206.711 291.216 207.451 292.851 208.43C299.403 212.345 299.25 218.587 292.509 222.369C285.771 226.151 274.994 226.043 268.443 222.126C262.115 218.343 262.102 212.411 268.179 208.602C265.553 210.141 263.514 212.183 262.737 214.846C259.441 226.161 278.838 233.409 292.817 226.083C294.302 225.197 298.82 222.504 298.886 217.273C298.899 216.356 298.736 214.922 297.898 213.297Z" fill="url(#paint38_linear_4_2305)"/>
<path d="M292.851 208.43C286.3 204.512 275.525 204.404 268.784 208.186C262.043 211.969 261.891 218.208 268.443 222.126C271.293 223.83 274.943 224.811 278.713 225.067C283.607 225.399 288.702 224.506 292.509 222.369C293.291 221.929 293.985 221.457 294.59 220.96C299.196 217.17 298.643 211.89 292.851 208.43Z" fill="url(#paint39_linear_4_2305)"/>
<path d="M293.354 208.389C286.706 204.35 275.773 204.238 268.933 208.14C266.213 209.693 264.596 211.649 264 213.692C264.23 213.851 264.404 214.027 264.654 214.179C267.546 215.937 271.249 216.952 275.075 217.216C280.041 217.558 285.211 216.635 289.074 214.43C289.868 213.978 290.571 213.491 291.185 212.979C292.68 211.728 293.578 210.312 294 208.858C293.775 208.706 293.598 208.536 293.354 208.389Z" fill="#DFDBCF"/>
<path d="M297.317 199.707C297.332 198.051 297.064 194.768 295.107 191.367C287.734 178.571 269.003 180.814 264.739 194.999C260.861 207.906 274.375 221.442 288.511 214.317C293.4 211.853 297.261 206.283 297.317 199.707Z" fill="url(#paint40_radial_4_2305)"/>
<path d="M292.431 193.97C291.024 196.446 287.45 197.029 284.453 195.267C281.453 193.509 280.162 190.075 281.569 187.599C282.977 185.123 286.548 184.543 289.548 186.302C292.545 188.063 293.838 191.494 292.431 193.97Z" fill="white"/>
<path d="M432.663 222.691L432.658 224.583C432.646 229.076 435.543 233.581 441.376 237.068C453.24 244.159 472.75 244.358 484.953 237.509C491.155 234.029 494.276 229.398 494.291 224.755L494.295 222.863L432.663 222.691Z" fill="url(#paint41_linear_4_2305)"/>
<path d="M484.675 208.368C480.309 205.717 475 204.123 469.469 203.479L443.344 207.884C437.156 211.214 432.874 216.204 432.663 222.691C432.65 227.184 435.55 231.687 441.384 235.177C453.245 242.267 472.754 242.464 484.957 235.617C491.16 232.137 494.283 227.506 494.295 222.676C494.059 216.917 490.823 212.104 484.675 208.368Z" fill="url(#paint42_linear_4_2305)"/>
<path d="M484.8 228.485C484.035 229.056 483.192 229.599 482.272 230.116C476.593 233.303 469.105 234.744 461.778 234.461C455.338 234.216 449.02 232.632 444.167 229.732C433.794 223.53 434.035 213.648 444.708 207.66C455.379 201.672 472.44 201.844 482.813 208.044C492.294 213.712 492.908 222.453 484.8 228.485ZM484.013 208.159C472.995 201.573 454.873 201.389 443.538 207.748C432.2 214.111 431.945 224.607 442.962 231.193C448.117 234.275 454.828 235.954 461.67 236.22C469.454 236.52 477.407 234.988 483.438 231.604C484.416 231.055 485.309 230.475 486.123 229.872C494.736 223.461 494.081 214.177 484.013 208.159Z" fill="url(#paint43_linear_4_2305)"/>
<path d="M485.255 200.985L438.823 203.113C429.724 210.936 430.607 222.288 442.323 229.393C450.259 234.208 467.917 238.295 484.043 229.833C484.338 229.668 484.571 229.408 484.731 229.063C484.571 229.408 484.338 229.668 484.043 229.833C486.554 228.345 494.187 223.82 494.318 215.033C494.374 211.177 492.724 205.796 485.255 200.985Z" fill="url(#paint44_linear_4_2305)"/>
<path d="M484.544 200.464C483.597 199.898 482.599 199.377 481.559 198.905L474.759 195.809C475.405 196.104 476.025 196.428 476.615 196.78L450.815 196.519C451.309 196.241 451.823 195.986 452.354 195.747L445.535 198.804C444.681 199.185 443.857 199.598 443.063 200.044C431.448 206.563 431.185 217.32 442.475 224.069C447.232 226.911 453.279 228.591 459.553 229.095C468.178 229.786 477.23 228.262 483.954 224.489C485.385 223.685 486.644 222.817 487.731 221.902C495.461 215.38 494.443 206.381 484.544 200.464Z" fill="url(#paint45_linear_4_2305)"/>
<path d="M445.291 202.965L445.289 204.069C445.279 206.73 446.995 209.396 450.448 211.462C457.472 215.66 469.023 215.778 476.249 211.723C479.921 209.662 481.77 206.92 481.777 204.17L481.78 203.068L445.291 202.965Z" fill="url(#paint46_linear_4_2305)"/>
<path d="M475.76 193.703L451.769 193.406C448.84 195.027 445.414 197.963 445.292 202.965C445.284 205.626 446.998 208.294 450.454 210.358C457.475 214.556 469.026 214.674 476.252 210.619C479.923 208.558 481.773 205.818 481.78 203.019C481.687 199.188 479.663 196.055 475.76 193.703Z" fill="url(#paint47_linear_4_2305)"/>
<path d="M475.654 193.647L474.272 193.005C479.318 196.023 479.837 200.609 475.897 203.937C475.344 204.404 474.702 204.847 473.972 205.255C470.543 207.18 465.925 207.958 461.528 207.603C458.328 207.348 455.247 206.492 452.822 205.041C447.064 201.6 447.197 196.116 453.122 192.791L451.769 193.406C445.08 197.159 444.93 203.351 451.43 207.239C454.169 208.875 457.649 209.841 461.262 210.132C466.227 210.532 471.444 209.652 475.314 207.48C476.141 207.018 476.866 206.516 477.491 205.99C481.94 202.235 481.355 197.053 475.654 193.647Z" fill="url(#paint48_linear_4_2305)"/>
<path d="M478.199 197.309L474.129 185.755L453.041 185.696L448.904 197.225C447.928 199.945 449.226 202.891 452.822 205.041C458.579 208.484 468.05 208.58 473.972 205.255C477.766 203.125 479.185 200.107 478.199 197.309Z" fill="url(#paint49_linear_4_2305)"/>
<path d="M480.853 177.494C478.962 173.832 474.923 171.506 470.233 170.404C472.267 170.906 474.168 171.648 475.806 172.625C482.358 176.542 482.205 182.784 475.464 186.567C468.723 190.349 457.949 190.238 451.398 186.323C445.07 182.541 445.058 176.609 451.132 172.799C448.508 174.339 446.469 176.378 445.692 179.044C442.397 190.359 461.793 197.606 475.772 190.28C477.257 189.392 481.773 186.702 481.841 181.468C481.851 180.554 481.691 179.12 480.853 177.494Z" fill="url(#paint50_linear_4_2305)"/>
<path d="M475.806 172.625C469.255 168.709 458.481 168.599 451.74 172.384C444.999 176.164 444.846 182.405 451.398 186.323C454.248 188.025 457.898 189.009 461.668 189.264C466.562 189.596 471.658 188.701 475.465 186.566C476.247 186.126 476.94 185.654 477.545 185.157C482.151 181.368 481.598 176.087 475.806 172.625Z" fill="url(#paint51_linear_4_2305)"/>
<path d="M475.375 172.39C468.949 168.351 458.381 168.237 451.769 172.139C449.14 173.691 447.577 175.65 447 177.692C447.222 177.852 447.391 178.027 447.632 178.179C450.428 179.937 454.008 180.952 457.706 181.216C462.506 181.558 467.504 180.635 471.238 178.43C472.005 177.979 472.686 177.492 473.277 176.979C474.724 175.726 475.592 174.313 476 172.859C475.783 172.707 475.609 172.537 475.375 172.39Z" fill="#DFDBCF"/>
<path d="M480.273 163.904C480.287 162.249 480.019 158.963 478.059 155.565C470.689 142.769 451.959 145.009 447.694 159.197C443.816 172.101 457.33 185.637 471.466 178.512C476.355 176.051 480.214 170.48 480.273 163.904Z" fill="url(#paint52_radial_4_2305)"/>
<path d="M475.479 157.971C474.189 160.447 470.913 161.027 468.165 159.268C465.415 157.51 464.232 154.076 465.522 151.599C466.812 149.123 470.086 148.543 472.836 150.302C475.584 152.061 476.767 155.495 475.479 157.971Z" fill="white"/>
<path d="M62.0197 212.285L62.0001 220.116C61.9853 225.169 65.182 230.234 71.6148 234.156C84.6995 242.13 106.218 242.353 119.679 234.653C126.52 230.739 129.963 225.53 129.978 220.309L130 212.481L62.0197 212.285Z" fill="#DFDBCF"/>
<path d="M120.429 199.522L119.571 199.025C126.3 203.046 129.354 208.344 128.771 213.513C128.262 218.038 124.969 222.465 118.914 225.861C116.214 227.379 113.174 228.569 109.945 229.437C97.6537 232.74 82.5684 231.365 72.5811 225.394C59.9674 217.854 60.2625 205.84 73.2378 198.558L72.3967 199.038C58.9468 206.588 58.6393 219.042 71.7155 226.86C82.0691 233.047 97.7103 234.474 110.45 231.05C113.799 230.15 116.949 228.916 119.748 227.344C126.024 223.823 129.44 219.233 129.969 214.544C130.572 209.182 127.404 203.693 120.429 199.522Z" fill="url(#paint53_linear_4_2305)"/>
<path d="M119.581 195.307L119.173 195.066L113.056 191.534L113.356 191.711L79.3393 191.367L73.2476 194.837C60.2723 202.119 59.9772 214.135 72.591 221.675C82.5708 227.639 97.6415 229.017 109.928 225.723C113.17 224.855 116.217 223.663 118.924 222.143C124.994 218.737 128.289 214.293 128.786 209.758C129.352 204.598 126.295 199.318 119.581 195.307Z" fill="url(#paint54_linear_4_2305)"/>
<path d="M119.003 222.156C105.937 229.505 85.0479 229.291 72.3462 221.685C66.1006 217.942 62.9976 213.107 63.01 208.285L63 212.04C62.9877 216.86 66.0882 221.695 72.3363 225.437C85.0355 233.047 105.924 233.257 118.993 225.909C125.632 222.176 128.975 217.207 128.99 212.224L129 208.471C128.985 213.452 125.644 218.421 119.003 222.156Z" fill="#DFDBCF"/>
<path d="M112.729 207.942C103.229 213.588 88.0376 213.427 78.7997 207.581C74.2592 204.706 72.0024 200.991 72.0122 197.285L72 201.498C71.9902 205.204 74.2469 208.916 78.7899 211.794C88.0254 217.637 103.217 217.801 112.72 212.155C117.549 209.285 119.978 205.469 119.99 201.641L120 197.428C119.99 201.256 117.559 205.074 112.729 207.942Z" fill="#DFDBCF"/>
<path d="M113.251 187.663C110.774 182.327 110.162 174.172 109.898 168.567C109.847 167.057 109.81 165.503 109.815 163.83C109.81 165.879 108.433 167.922 105.693 169.46C100.307 172.482 91.6947 172.396 86.4588 169.265C83.8839 167.726 82.6051 165.736 82.61 163.754C82.6076 164.991 82.5633 166.108 82.5289 167.256C82.3247 174.051 81.7444 181.043 79.1892 187.262L79.017 187.558C74.4254 190.248 72.0719 193.804 72.062 197.333C72.0522 200.843 74.3148 204.36 78.867 207.082C88.1287 212.618 103.359 212.77 112.884 207.424C117.726 204.709 120.164 201.094 120.173 197.469C120.186 193.212 116.964 189.85 113.251 187.663Z" fill="url(#paint55_linear_4_2305)"/>
<path d="M74.1649 157.849L74.1599 159.34C74.1501 162.556 76.2258 165.78 80.4042 168.279C88.8986 173.355 102.867 173.498 111.605 168.594C116.047 166.103 118.282 162.787 118.292 159.462L118.295 157.972L74.1649 157.849Z" fill="url(#paint56_linear_4_2305)"/>
<path d="M112.053 149.033C109.918 147.759 107.437 146.792 104.781 146.143L100.878 145.186C102.314 145.538 103.657 146.059 104.813 146.75L87.9223 146.578C89.0363 145.956 90.3053 145.481 91.6579 145.159L87.7476 146.094C85.2514 146.689 82.9077 147.564 80.8493 148.718C72.1114 153.622 71.9122 161.713 80.4066 166.791C86.6631 170.529 95.8904 171.592 103.812 169.932C106.642 169.339 109.308 168.397 111.61 167.106C116.175 164.543 118.41 161.11 118.29 157.692C118.182 154.568 116.108 151.457 112.053 149.033Z" fill="url(#paint57_linear_4_2305)"/>
<path d="M113.442 187.799C115.245 189.601 116.558 191.827 116.551 194.466C116.544 197.766 114.473 201.059 110.358 203.536C102.267 208.405 89.3313 208.265 81.4665 203.221C77.598 200.742 75.6748 197.537 75.6847 194.343C75.6896 192.063 76.747 189.781 78.7243 187.767C74.3492 190.433 72.0719 193.89 72.062 197.333C72.0522 200.843 74.3148 204.36 78.867 207.082C88.1287 212.618 103.359 212.77 112.884 207.424C117.726 204.709 120.164 201.094 120.173 197.469C120.186 193.288 117.072 189.987 113.442 187.799Z" fill="url(#paint58_linear_4_2305)"/>
<path d="M104.537 150.252C99.8204 152.899 92.2827 152.822 87.6985 150.083C85.4433 148.735 84.3244 146.994 84.3293 145.257L84.3096 151.782C84.3047 153.518 85.4236 155.259 87.6788 156.607C92.263 159.347 99.8033 159.423 104.518 156.777C106.916 155.432 108.123 153.644 108.128 151.848L108.145 145.324C108.14 147.117 106.935 148.907 104.537 150.252Z" fill="url(#paint59_linear_4_2305)"/>
<path d="M81.9437 142.724L81.9363 145.25C81.9314 147.336 83.2741 149.426 85.9818 151.044C91.4882 154.335 100.541 154.426 106.205 151.248C109.082 149.633 110.531 147.486 110.538 145.329L110.545 142.803L81.9437 142.724Z" fill="url(#paint60_linear_4_2305)"/>
<path d="M106.497 137.009C100.994 133.719 91.9408 133.628 86.277 136.805C80.6133 139.982 80.4854 145.228 85.9893 148.519C91.4933 151.809 100.548 151.9 106.212 148.723C111.874 145.545 112.004 140.3 106.497 137.009Z" fill="url(#paint61_linear_4_2305)"/>
<path d="M77.5808 124.931L84.1324 144.134C84.5775 145.444 85.6621 146.699 87.3885 147.732C92.1423 150.575 99.9605 150.653 104.85 147.909C106.706 146.866 107.875 145.567 108.349 144.202L115.007 125.035L77.5808 124.931Z" fill="url(#paint62_linear_4_2305)"/>
<path d="M77.2244 120.51L77.2171 122.757C77.2097 125.541 79.005 128.33 82.6177 130.489C89.9636 134.882 102.044 135.002 109.601 130.762C113.443 128.608 115.376 125.74 115.383 122.866L115.39 120.618L77.2244 120.51Z" fill="url(#paint63_linear_4_2305)"/>
<path d="M109.992 112.886C102.646 108.493 90.5636 108.37 83.0061 112.613C75.4487 116.853 75.2766 123.852 82.6225 128.242C89.9685 132.634 102.051 132.754 109.608 128.515C117.166 124.275 117.338 117.276 109.992 112.886Z" fill="url(#paint64_linear_4_2305)"/>
<path d="M108.389 117.401L106.874 113.272C107.619 115.303 106.601 117.502 103.841 119.051C99.5695 121.447 92.7424 121.378 88.5887 118.896C85.9744 117.332 85.0448 115.185 85.7826 113.21L84.243 117.332C83.3995 119.592 84.4644 122.052 87.4574 123.842C92.2112 126.682 100.027 126.761 104.918 124.017C108.079 122.246 109.242 119.728 108.389 117.401Z" fill="url(#paint65_linear_4_2305)"/>
<path d="M104.058 110.215C99.9064 107.733 93.0769 107.665 88.8051 110.062C84.5332 112.458 84.4374 116.415 88.5887 118.896C92.7424 121.378 99.5695 121.447 103.841 119.051C108.113 116.653 108.211 112.699 104.058 110.215Z" fill="url(#paint66_linear_4_2305)"/>
<path d="M95.8616 108.285C93.352 108.331 90.8542 108.853 88.9116 109.955C88.0694 110.431 87.5096 111.004 87 111.583C87.0957 113.712 89.7896 115.727 93.4357 116.189C97.3211 116.682 100.699 115.232 100.981 112.953C101.228 110.97 98.991 109.083 95.8616 108.285Z" fill="#DEDACE"/>
<path d="M103.182 109.187C103.187 108.506 103.079 107.15 102.27 105.746C99.2277 100.469 91.5031 101.393 89.7447 107.246C88.1437 112.568 93.7189 118.153 99.5499 115.215C101.567 114.196 103.158 111.899 103.182 109.187Z" fill="url(#paint67_radial_4_2305)"/>
<path d="M302 26.2852L298 28.5763V30.2852L302 27.994V26.2852Z" fill="#FFFFF8"/>
<path d="M308 23.2852L304 25.8268V27.2852L308 24.7412V23.2852Z" fill="#FFFFF8"/>
<path d="M324 15.8377V14.2852L310 21.7326V23.2852L324 15.8377Z" fill="#FFFFF8"/>
<path d="M306 28.2852L298 32.7162V34.2852L306 29.8516V28.2852Z" fill="#FFFFF8"/>
<path d="M308 28.2852L312 25.742V24.2852L308 26.8283V28.2852Z" fill="#FFFFF8"/>
<path d="M319 22.896V21.2852L315 23.6718V25.2852L319 22.896Z" fill="#FFFFF8"/>
<path d="M321 21.2852L324 19.7912V18.2852L321 19.7791V21.2852Z" fill="#FFFFF8"/>
<path d="M302 34.2852L298 36.5775V38.2852L302 35.9928V34.2852Z" fill="#FFFFF8"/>
<path d="M304 35.2852L308 32.742V31.2852L304 33.8283V35.2852Z" fill="#FFFFF8"/>
<path d="M310 31.2852L321 25.7602V24.2852L310 29.8101V31.2852Z" fill="#FFFFF8"/>
<path d="M306 36.2852L298 41.4577V43.2852L306 38.1126V36.2852Z" fill="#FFFFF8"/>
<path d="M312 32.2852L308 34.8283V36.2852L312 33.742V32.2852Z" fill="#FFFFF8"/>
<path d="M315 31.6743V33.2852L319 30.896V29.2852L315 31.6743Z" fill="#FFFFF8"/>
<path d="M302 43.2852L298 45.5775V47.2852L302 44.9955V43.2852Z" fill="#FFFFF8"/>
<path d="M304 44.2852L308 41.1063V39.2852L304 42.4641V44.2852Z" fill="#FFFFF8"/>
<path d="M320 33.8686V32.2852L310 37.7017V39.2852L320 33.8686Z" fill="#FFFFF8"/>
<path d="M346 44.7959L336 50.2852V40.7744L346 35.2852V44.7959Z" fill="#FFFFF8"/>
<path d="M443 127.43L434 133.285V123.143L443 117.285V127.43Z" fill="#FFFFF8"/>
<path d="M323 6.62489L317 10.2852V3.94542L323 0.285156V6.62489Z" fill="#FFFFF8"/>
<path d="M451.527 11.2098C449.603 9.76055 446.938 9.96842 444 12.1637L449.473 16.2852C452.412 14.0868 455.076 13.882 457 15.3313L451.527 11.2098Z" fill="#FFFFF8"/>
<path d="M356.947 136.399L352 133.285L352.053 153.169L357 156.285L356.947 136.399Z" fill="#CEC9BB"/>
<path d="M345.439 130.235L345.309 88.5907L339 85.2852L339.131 126.929C339.142 130.389 340.502 132.829 342.692 133.977L349 137.285C346.81 136.137 345.45 133.697 345.439 130.235Z" fill="#CEC9BB"/>
<path d="M444.322 11.2852L351 65.9399L356.678 69.2852L450 14.6329L444.322 11.2852Z" fill="#FFFFF8"/>
<path d="M350.191 66.2852C343.998 69.7411 338.98 78.1231 339 85.0229L344.81 88.2852C344.789 81.3878 349.807 73.0033 356 69.5474L350.191 66.2852Z" fill="#E8E2D5"/>
<path d="M449.815 15.7824C455.9 12.3061 460.862 15.0857 460.882 22.0238L461 63.3646C461.02 70.2831 456.089 78.7364 450.005 82.2128L368.785 128.623L357.108 156.285L357.046 135.33L356.185 135.822C350.1 139.298 345.138 136.499 345.118 129.581L345 88.2397C344.98 81.3017 349.911 72.8678 355.995 69.3915L449.815 15.7824Z" fill="#31303A"/>
<path d="M420 80.2852L423 78.2423V46.2852L420 48.328V80.2852Z" fill="#B58EF8"/>
<path d="M423 78.2852L427 76.2103V49.2852L423 51.36V78.2852Z" fill="#B58EF8"/>
<path d="M427 76.2852L431 74.2243V51.2852L427 53.3461V76.2852Z" fill="#FFFFF8"/>
<path d="M431 74.2852L435 72.2122V53.2852L431 55.3581V74.2852Z" fill="#FFFFF8"/>
<path d="M435 72.2852L438 70.2155V50.2852L435 52.3548V72.2852Z" fill="#FFFFF8"/>
<path d="M438 69.2852L441 67.3175V54.2852L438 56.2551V69.2852Z" fill="#FFFFF8"/>
<path d="M441 67.2852L445 65.4922V63.2852L441 65.0781V67.2852Z" fill="#FFFFF8"/>
<path d="M373 94.643L365 98.2852V96.9273L373 93.2852V94.643Z" fill="#FFFFF8"/>
<path d="M379 90.7419L375 93.2852V91.8284L379 89.2852V90.7419Z" fill="#FFFFF8"/>
<path d="M390 84.5833L381 89.2852V87.9871L390 83.2852V84.5833Z" fill="#FFFFF8"/>
<path d="M376 96.8322L365 103.285V101.738L376 95.2852V96.8322Z" fill="#FFFFF8"/>
<path d="M383 92.7419L378 95.2852V93.8284L383 91.2852V92.7419Z" fill="#FFFFF8"/>
<path d="M390 88.561L385 91.2852V90.0093L390 87.2852V88.561Z" fill="#FFFFF8"/>
<path d="M373 103.642L365 107.285V105.928L373 102.285V103.642Z" fill="#FFFFF8"/>
<path d="M379 99.106L375 102.285V100.464L379 97.2852V99.106Z" fill="#FFFFF8"/>
<path d="M390 92.5833L381 97.2852V95.9871L390 91.2852V92.5833Z" fill="#FFFFF8"/>
<path d="M376 105.639L365 111.285V109.931L376 104.285V105.639Z" fill="#FFFFF8"/>
<path d="M383 101.106L378 104.285V102.464L383 99.2852V101.106Z" fill="#FFFFF8"/>
<path d="M390 96.5617L385 99.2852V98.0086L390 95.2852V96.5617Z" fill="#FFFFF8"/>
<path d="M373 82.6424L365 86.2852V84.9279L373 81.2852V82.6424Z" fill="#FFFFF8"/>
<path d="M379 78.7419L375 81.2852V79.8284L379 77.2852V78.7419Z" fill="#FFFFF8"/>
<path d="M390 72.016L381 78.2852V76.5544L390 70.2852V72.016Z" fill="#FFFFF8"/>
<path d="M376 84.6388L365 90.2852V88.9315L376 83.2852V84.6388Z" fill="#FFFFF8"/>
<path d="M383 80.7419L378 83.2852V81.8285L383 79.2852V80.7419Z" fill="#FFFFF8"/>
<path d="M390 76.561L385 79.2852V78.0093L390 75.2852V76.561Z" fill="#FFFFF8"/>
<path d="M395 93.2852L399 91.5629V88.2852L395 90.0095V93.2852Z" fill="#B58EF8"/>
<path d="M399 91.2852L403 89.356V75.2852L399 77.2143V91.2852Z" fill="#B58EF8"/>
<path d="M403 89.2852L406 87.2761V70.2852L403 72.2942V89.2852Z" fill="#FFFFF8"/>
<path d="M406 88.2852L410 86.2203V60.2852L406 62.3476V88.2852Z" fill="#FFFFF8"/>
<path d="M410 86.2852L413 84.2413V62.2852L410 64.3265V86.2852Z" fill="#FFFFF8"/>
<path d="M413 84.2852L417 82.1838V68.2852L413 70.3864V84.2852Z" fill="#FFFFF8"/>
<path d="M417 82.2852L420 80.2348V62.2852L417 64.3355V82.2852Z" fill="#FFFFF8"/>
<defs>
<linearGradient id="paint0_linear_4_2305" x1="368.554" y1="254.923" x2="436.489" y2="254.923" gradientUnits="userSpaceOnUse">
<stop stop-color="#F3ECE2"/>
<stop offset="0.615487" stop-color="#FDFBF3"/>
<stop offset="1" stop-color="#FDFBF3"/>
</linearGradient>
<linearGradient id="paint1_linear_4_2305" x1="369.768" y1="248.63" x2="435.301" y2="248.63" gradientUnits="userSpaceOnUse">
<stop stop-color="#F3ECE2"/>
<stop offset="0.615487" stop-color="#FDFBF3"/>
<stop offset="1" stop-color="#FDFBF3"/>
</linearGradient>
<linearGradient id="paint2_linear_4_2305" x1="388.981" y1="206.167" x2="413.167" y2="248.64" gradientUnits="userSpaceOnUse">
<stop stop-color="#CECABF"/>
<stop offset="1" stop-color="#F3ECE2"/>
</linearGradient>
<linearGradient id="paint3_linear_4_2305" x1="380.609" y1="204.227" x2="424.744" y2="204.227" gradientUnits="userSpaceOnUse">
<stop stop-color="#DBD6CB"/>
<stop offset="1" stop-color="#F7F1E6"/>
</linearGradient>
<linearGradient id="paint4_linear_4_2305" x1="380.611" y1="197.137" x2="424.742" y2="197.137" gradientUnits="userSpaceOnUse">
<stop stop-color="#F3ECE2"/>
<stop offset="0.615487" stop-color="#FDFBF3"/>
<stop offset="1" stop-color="#FDFBF3"/>
</linearGradient>
<linearGradient id="paint5_linear_4_2305" x1="390.754" y1="190.356" x2="414.662" y2="190.356" gradientUnits="userSpaceOnUse">
<stop stop-color="#CECABF"/>
<stop offset="1" stop-color="#F3ECE2"/>
</linearGradient>
<linearGradient id="paint6_linear_4_2305" x1="384.16" y1="176.417" x2="421.32" y2="176.417" gradientUnits="userSpaceOnUse">
<stop stop-color="#DBD6CB"/>
<stop offset="1" stop-color="#F7F1E6"/>
</linearGradient>
<linearGradient id="paint7_linear_4_2305" x1="387.495" y1="169.455" x2="418.019" y2="169.455" gradientUnits="userSpaceOnUse">
<stop stop-color="#F3ECE2"/>
<stop offset="0.615487" stop-color="#FDFBF3"/>
<stop offset="1" stop-color="#FDFBF3"/>
</linearGradient>
<linearGradient id="paint8_linear_4_2305" x1="391.809" y1="169.519" x2="413.705" y2="169.519" gradientUnits="userSpaceOnUse">
<stop stop-color="#DBD6CB"/>
<stop offset="1" stop-color="#F7F1E6"/>
</linearGradient>
<radialGradient id="paint9_radial_4_2305" cx="0" cy="0" r="1" gradientUnits="userSpaceOnUse" gradientTransform="translate(406.383 160.058) scale(15.5664 15.5664)">
<stop stop-color="#FDFBF3"/>
<stop offset="0.558665" stop-color="#FDFBF3"/>
<stop offset="1" stop-color="#E5E2D8"/>
</radialGradient>
<linearGradient id="paint10_linear_4_2305" x1="378.966" y1="238.763" x2="424.898" y2="238.763" gradientUnits="userSpaceOnUse">
<stop stop-color="#F3ECE2"/>
<stop offset="0.615487" stop-color="#FDFBF3"/>
<stop offset="1" stop-color="#FDFBF3"/>
</linearGradient>
<linearGradient id="paint11_linear_4_2305" x1="245.411" y1="194.225" x2="313.368" y2="194.225" gradientUnits="userSpaceOnUse">
<stop stop-color="#333E93"/>
<stop offset="1" stop-color="#5361BD"/>
</linearGradient>
<linearGradient id="paint12_linear_4_2305" x1="245.433" y1="183.118" x2="313.369" y2="183.118" gradientUnits="userSpaceOnUse">
<stop stop-color="#5C69C9"/>
<stop offset="0.00816282" stop-color="#5C69C9"/>
<stop offset="1" stop-color="#6977DE"/>
</linearGradient>
<linearGradient id="paint13_linear_4_2305" x1="246.648" y1="176.825" x2="312.181" y2="176.825" gradientUnits="userSpaceOnUse">
<stop stop-color="#5C69C9"/>
<stop offset="0.00816282" stop-color="#5C69C9"/>
<stop offset="1" stop-color="#6977DE"/>
</linearGradient>
<linearGradient id="paint14_linear_4_2305" x1="246.638" y1="187.201" x2="312.181" y2="187.201" gradientUnits="userSpaceOnUse">
<stop stop-color="#333E93"/>
<stop offset="1" stop-color="#5361BD"/>
</linearGradient>
<linearGradient id="paint15_linear_4_2305" x1="255.379" y1="173.736" x2="303.502" y2="173.736" gradientUnits="userSpaceOnUse">
<stop stop-color="#333E93"/>
<stop offset="1" stop-color="#5361BD"/>
</linearGradient>
<linearGradient id="paint16_linear_4_2305" x1="265.86" y1="134.365" x2="290.047" y2="176.839" gradientUnits="userSpaceOnUse">
<stop stop-color="#333E93"/>
<stop offset="1" stop-color="#5361BD"/>
</linearGradient>
<linearGradient id="paint17_linear_4_2305" x1="257.489" y1="132.422" x2="301.624" y2="132.422" gradientUnits="userSpaceOnUse">
<stop stop-color="#333E93"/>
<stop offset="1" stop-color="#5361BD"/>
</linearGradient>
<linearGradient id="paint18_linear_4_2305" x1="257.491" y1="125.332" x2="301.622" y2="125.332" gradientUnits="userSpaceOnUse">
<stop stop-color="#5C69C9"/>
<stop offset="0.00816282" stop-color="#5C69C9"/>
<stop offset="1" stop-color="#6977DE"/>
</linearGradient>
<linearGradient id="paint19_linear_4_2305" x1="255.846" y1="166.958" x2="301.778" y2="166.958" gradientUnits="userSpaceOnUse">
<stop stop-color="#5C69C9"/>
<stop offset="0.00816282" stop-color="#5C69C9"/>
<stop offset="1" stop-color="#6977DE"/>
</linearGradient>
<linearGradient id="paint20_linear_4_2305" x1="267.638" y1="119.393" x2="291.475" y2="119.393" gradientUnits="userSpaceOnUse">
<stop stop-color="#333E93"/>
<stop offset="1" stop-color="#5361BD"/>
</linearGradient>
<linearGradient id="paint21_linear_4_2305" x1="265.265" y1="115.556" x2="293.873" y2="115.556" gradientUnits="userSpaceOnUse">
<stop stop-color="#333E93"/>
<stop offset="1" stop-color="#5361BD"/>
</linearGradient>
<linearGradient id="paint22_linear_4_2305" x1="265.273" y1="110.171" x2="293.873" y2="110.171" gradientUnits="userSpaceOnUse">
<stop stop-color="#5C69C9"/>
<stop offset="0.00816282" stop-color="#5C69C9"/>
<stop offset="1" stop-color="#6977DE"/>
</linearGradient>
<linearGradient id="paint23_linear_4_2305" x1="260.91" y1="104.832" x2="298.336" y2="104.832" gradientUnits="userSpaceOnUse">
<stop stop-color="#333E93"/>
<stop offset="1" stop-color="#5361BD"/>
</linearGradient>
<linearGradient id="paint24_linear_4_2305" x1="260.546" y1="94.5959" x2="298.719" y2="94.5959" gradientUnits="userSpaceOnUse">
<stop stop-color="#333E93"/>
<stop offset="1" stop-color="#5361BD"/>
</linearGradient>
<linearGradient id="paint25_linear_4_2305" x1="260.551" y1="87.9705" x2="298.717" y2="87.9705" gradientUnits="userSpaceOnUse">
<stop stop-color="#5C69C9"/>
<stop offset="0.00816282" stop-color="#5C69C9"/>
<stop offset="1" stop-color="#6977DE"/>
</linearGradient>
<linearGradient id="paint26_linear_4_2305" x1="267.292" y1="87.0261" x2="291.988" y2="87.0261" gradientUnits="userSpaceOnUse">
<stop stop-color="#333E93"/>
<stop offset="1" stop-color="#5361BD"/>
</linearGradient>
<linearGradient id="paint27_linear_4_2305" x1="268.866" y1="81.9623" x2="290.438" y2="81.9623" gradientUnits="userSpaceOnUse">
<stop stop-color="#5C69C9"/>
<stop offset="0.00816282" stop-color="#5C69C9"/>
<stop offset="1" stop-color="#6977DE"/>
</linearGradient>
<radialGradient id="paint28_radial_4_2305" cx="0" cy="0" r="1" gradientUnits="userSpaceOnUse" gradientTransform="translate(283.791 69.6241) scale(14.2863 14.2862)">
<stop stop-color="#7483EE"/>
<stop offset="0.976229" stop-color="#6977DE"/>
<stop offset="1" stop-color="#6977DE"/>
</radialGradient>
<linearGradient id="paint29_linear_4_2305" x1="249.703" y1="268.407" x2="311.339" y2="268.407" gradientUnits="userSpaceOnUse">
<stop stop-color="#DBD6CB"/>
<stop offset="1" stop-color="#F7F1E6"/>
</linearGradient>
<linearGradient id="paint30_linear_4_2305" x1="249.71" y1="257.854" x2="311.341" y2="257.854" gradientUnits="userSpaceOnUse">
<stop stop-color="#F3ECE2"/>
<stop offset="0.615487" stop-color="#FDFBF3"/>
<stop offset="1" stop-color="#FDFBF3"/>
</linearGradient>
<linearGradient id="paint31_linear_4_2305" x1="251.909" y1="255.479" x2="309.156" y2="255.479" gradientUnits="userSpaceOnUse">
<stop stop-color="#CECABF"/>
<stop offset="1" stop-color="#F3ECE2"/>
</linearGradient>
<linearGradient id="paint32_linear_4_2305" x1="249.727" y1="253.661" x2="311.365" y2="253.661" gradientUnits="userSpaceOnUse">
<stop stop-color="#DBD6CB"/>
<stop offset="1" stop-color="#F7F1E6"/>
</linearGradient>
<linearGradient id="paint33_linear_4_2305" x1="251.223" y1="248.305" x2="309.889" y2="248.305" gradientUnits="userSpaceOnUse">
<stop stop-color="#F3ECE2"/>
<stop offset="0.615487" stop-color="#FDFBF3"/>
<stop offset="1" stop-color="#FDFBF3"/>
</linearGradient>
<linearGradient id="paint34_linear_4_2305" x1="262.334" y1="244.631" x2="298.826" y2="244.631" gradientUnits="userSpaceOnUse">
<stop stop-color="#CECABF"/>
<stop offset="1" stop-color="#F3ECE2"/>
</linearGradient>
<linearGradient id="paint35_linear_4_2305" x1="262.336" y1="239.299" x2="298.825" y2="239.299" gradientUnits="userSpaceOnUse">
<stop stop-color="#DBD6CB"/>
<stop offset="1" stop-color="#F7F1E6"/>
</linearGradient>
<linearGradient id="paint36_linear_4_2305" x1="263.696" y1="237.312" x2="297.478" y2="237.312" gradientUnits="userSpaceOnUse">
<stop stop-color="#F3ECE2"/>
<stop offset="0.615487" stop-color="#FDFBF3"/>
<stop offset="1" stop-color="#FDFBF3"/>
</linearGradient>
<linearGradient id="paint37_linear_4_2305" x1="265.636" y1="232.494" x2="295.55" y2="232.494" gradientUnits="userSpaceOnUse">
<stop stop-color="#CECABF"/>
<stop offset="1" stop-color="#F3ECE2"/>
</linearGradient>
<linearGradient id="paint38_linear_4_2305" x1="262.368" y1="217.623" x2="298.888" y2="217.623" gradientUnits="userSpaceOnUse">
<stop stop-color="#DBD6CB"/>
<stop offset="1" stop-color="#F7F1E6"/>
</linearGradient>
<linearGradient id="paint39_linear_4_2305" x1="263.627" y1="215.276" x2="297.666" y2="215.276" gradientUnits="userSpaceOnUse">
<stop stop-color="#F3ECE2"/>
<stop offset="0.615487" stop-color="#FDFBF3"/>
<stop offset="1" stop-color="#FDFBF3"/>
</linearGradient>
<radialGradient id="paint40_radial_4_2305" cx="0" cy="0" r="1" gradientUnits="userSpaceOnUse" gradientTransform="translate(288.196 187.154) scale(31.9985 31.9985)">
<stop stop-color="#FDFBF3"/>
<stop offset="0.558665" stop-color="#FDFBF3"/>
<stop offset="1" stop-color="#EDE8DD"/>
</radialGradient>
<linearGradient id="paint41_linear_4_2305" x1="432.658" y1="232.605" x2="494.294" y2="232.605" gradientUnits="userSpaceOnUse">
<stop stop-color="#DBD6CB"/>
<stop offset="1" stop-color="#F7F1E6"/>
</linearGradient>
<linearGradient id="paint42_linear_4_2305" x1="432.663" y1="222.052" x2="494.294" y2="222.052" gradientUnits="userSpaceOnUse">
<stop stop-color="#F3ECE2"/>
<stop offset="0.615487" stop-color="#FDFBF3"/>
<stop offset="1" stop-color="#FDFBF3"/>
</linearGradient>
<linearGradient id="paint43_linear_4_2305" x1="434.864" y1="219.676" x2="492.112" y2="219.676" gradientUnits="userSpaceOnUse">
<stop stop-color="#CECABF"/>
<stop offset="1" stop-color="#F3ECE2"/>
</linearGradient>
<linearGradient id="paint44_linear_4_2305" x1="432.682" y1="217.859" x2="494.32" y2="217.859" gradientUnits="userSpaceOnUse">
<stop stop-color="#DBD6CB"/>
<stop offset="1" stop-color="#F7F1E6"/>
</linearGradient>
<linearGradient id="paint45_linear_4_2305" x1="434.175" y1="212.502" x2="492.841" y2="212.502" gradientUnits="userSpaceOnUse">
<stop stop-color="#F3ECE2"/>
<stop offset="0.615487" stop-color="#FDFBF3"/>
<stop offset="1" stop-color="#FDFBF3"/>
</linearGradient>
<linearGradient id="paint46_linear_4_2305" x1="445.289" y1="208.828" x2="481.781" y2="208.828" gradientUnits="userSpaceOnUse">
<stop stop-color="#CECABF"/>
<stop offset="1" stop-color="#F3ECE2"/>
</linearGradient>
<linearGradient id="paint47_linear_4_2305" x1="445.292" y1="203.494" x2="481.781" y2="203.494" gradientUnits="userSpaceOnUse">
<stop stop-color="#DBD6CB"/>
<stop offset="1" stop-color="#F7F1E6"/>
</linearGradient>
<linearGradient id="paint48_linear_4_2305" x1="446.651" y1="201.509" x2="480.433" y2="201.509" gradientUnits="userSpaceOnUse">
<stop stop-color="#F3ECE2"/>
<stop offset="0.615487" stop-color="#FDFBF3"/>
<stop offset="1" stop-color="#FDFBF3"/>
</linearGradient>
<linearGradient id="paint49_linear_4_2305" x1="448.589" y1="196.691" x2="478.503" y2="196.691" gradientUnits="userSpaceOnUse">
<stop stop-color="#CECABF"/>
<stop offset="1" stop-color="#F3ECE2"/>
</linearGradient>
<linearGradient id="paint50_linear_4_2305" x1="445.321" y1="181.82" x2="481.841" y2="181.82" gradientUnits="userSpaceOnUse">
<stop stop-color="#DBD6CB"/>
<stop offset="1" stop-color="#F7F1E6"/>
</linearGradient>
<linearGradient id="paint51_linear_4_2305" x1="446.582" y1="179.474" x2="480.622" y2="179.474" gradientUnits="userSpaceOnUse">
<stop stop-color="#F3ECE2"/>
<stop offset="0.615487" stop-color="#FDFBF3"/>
<stop offset="1" stop-color="#FDFBF3"/>
</linearGradient>
<radialGradient id="paint52_radial_4_2305" cx="0" cy="0" r="1" gradientUnits="userSpaceOnUse" gradientTransform="translate(471.151 151.352) scale(31.9985 31.9985)">
<stop stop-color="#FDFBF3"/>
<stop offset="0.558665" stop-color="#FDFBF3"/>
<stop offset="1" stop-color="#EDE8DD"/>
</radialGradient>
<linearGradient id="paint53_linear_4_2305" x1="62.1045" y1="215.712" x2="130.04" y2="215.712" gradientUnits="userSpaceOnUse">
<stop stop-color="#F3ECE2"/>
<stop offset="0.615487" stop-color="#FDFBF3"/>
<stop offset="1" stop-color="#FDFBF3"/>
</linearGradient>
<linearGradient id="paint54_linear_4_2305" x1="63.3194" y1="209.418" x2="128.852" y2="209.418" gradientUnits="userSpaceOnUse">
<stop stop-color="#F3ECE2"/>
<stop offset="0.615487" stop-color="#FDFBF3"/>
<stop offset="1" stop-color="#FDFBF3"/>
</linearGradient>
<linearGradient id="paint55_linear_4_2305" x1="82.5313" y1="166.956" x2="106.717" y2="209.429" gradientUnits="userSpaceOnUse">
<stop stop-color="#CECABF"/>
<stop offset="1" stop-color="#F3ECE2"/>
</linearGradient>
<linearGradient id="paint56_linear_4_2305" x1="74.1599" y1="165.016" x2="118.295" y2="165.016" gradientUnits="userSpaceOnUse">
<stop stop-color="#DBD6CB"/>
<stop offset="1" stop-color="#F7F1E6"/>
</linearGradient>
<linearGradient id="paint57_linear_4_2305" x1="74.1649" y1="157.925" x2="118.296" y2="157.925" gradientUnits="userSpaceOnUse">
<stop stop-color="#F3ECE2"/>
<stop offset="0.615487" stop-color="#FDFBF3"/>
<stop offset="1" stop-color="#FDFBF3"/>
</linearGradient>
<linearGradient id="paint58_linear_4_2305" x1="72.5195" y1="199.552" x2="118.452" y2="199.552" gradientUnits="userSpaceOnUse">
<stop stop-color="#F3ECE2"/>
<stop offset="0.615487" stop-color="#FDFBF3"/>
<stop offset="1" stop-color="#FDFBF3"/>
</linearGradient>
<linearGradient id="paint59_linear_4_2305" x1="84.3096" y1="151.984" x2="108.145" y2="151.984" gradientUnits="userSpaceOnUse">
<stop stop-color="#CECABF"/>
<stop offset="1" stop-color="#F3ECE2"/>
</linearGradient>
<linearGradient id="paint60_linear_4_2305" x1="81.9363" y1="148.15" x2="110.544" y2="148.15" gradientUnits="userSpaceOnUse">
<stop stop-color="#DBD6CB"/>
<stop offset="1" stop-color="#F7F1E6"/>
</linearGradient>
<linearGradient id="paint61_linear_4_2305" x1="81.9438" y1="142.764" x2="110.544" y2="142.764" gradientUnits="userSpaceOnUse">
<stop stop-color="#F3ECE2"/>
<stop offset="0.615487" stop-color="#FDFBF3"/>
<stop offset="1" stop-color="#FDFBF3"/>
</linearGradient>
<linearGradient id="paint62_linear_4_2305" x1="77.5808" y1="137.422" x2="115.008" y2="137.422" gradientUnits="userSpaceOnUse">
<stop stop-color="#CECABF"/>
<stop offset="1" stop-color="#F3ECE2"/>
</linearGradient>
<linearGradient id="paint63_linear_4_2305" x1="77.2171" y1="127.187" x2="115.39" y2="127.187" gradientUnits="userSpaceOnUse">
<stop stop-color="#DBD6CB"/>
<stop offset="1" stop-color="#F7F1E6"/>
</linearGradient>
<linearGradient id="paint64_linear_4_2305" x1="77.2243" y1="120.564" x2="115.391" y2="120.564" gradientUnits="userSpaceOnUse">
<stop stop-color="#F3ECE2"/>
<stop offset="0.615487" stop-color="#FDFBF3"/>
<stop offset="1" stop-color="#FDFBF3"/>
</linearGradient>
<linearGradient id="paint65_linear_4_2305" x1="83.9627" y1="119.617" x2="108.659" y2="119.617" gradientUnits="userSpaceOnUse">
<stop stop-color="#DBD6CB"/>
<stop offset="1" stop-color="#F7F1E6"/>
</linearGradient>
<linearGradient id="paint66_linear_4_2305" x1="85.5367" y1="114.556" x2="107.109" y2="114.556" gradientUnits="userSpaceOnUse">
<stop stop-color="#F3ECE2"/>
<stop offset="0.615487" stop-color="#FDFBF3"/>
<stop offset="1" stop-color="#FDFBF3"/>
</linearGradient>
<radialGradient id="paint67_radial_4_2305" cx="0" cy="0" r="1" gradientUnits="userSpaceOnUse" gradientTransform="translate(99.4196 104.01) scale(13.1991 13.1992)">
<stop stop-color="#FDFBF3"/>
<stop offset="0.558665" stop-color="#FDFBF3"/>
<stop offset="1" stop-color="#EDE8DD"/>
</radialGradient>
</defs>
</svg>
